<mxfile host="www.draw.io" modified="2019-12-06T04:53:26.141Z" agent="Mozilla/5.0 (Macintosh; Intel Mac OS X 10.15; rv:70.0) Gecko/20100101 Firefox/70.0" etag="7_wfCBYe323RPNDoQ1oS" version="12.3.7" type="github" pages="1">
  <diagram id="FN55JzjhB0qvYEhzUZrB" name="Page-1">
    <mxGraphModel dx="1975" dy="800" grid="1" gridSize="10" guides="1" tooltips="1" connect="1" arrows="1" fold="1" page="1" pageScale="1" pageWidth="827" pageHeight="1169" math="0" shadow="0">
      <root>
        <mxCell id="0"/>
        <mxCell id="1" parent="0"/>
        <mxCell id="YfqLZiuq-RBrFdygV_fY-14" value="Nubija" style="swimlane;fontStyle=1;align=center;verticalAlign=top;childLayout=stackLayout;horizontal=1;startSize=26;horizontalStack=0;resizeParent=1;resizeParentMax=0;resizeLast=0;collapsible=1;marginBottom=0;" parent="1" vertex="1">
          <mxGeometry x="40.5" y="370" width="490" height="80" as="geometry"/>
        </mxCell>
        <mxCell id="YfqLZiuq-RBrFdygV_fY-16" value="" style="line;strokeWidth=1;fillColor=none;align=left;verticalAlign=middle;spacingTop=-1;spacingLeft=3;spacingRight=3;rotatable=0;labelPosition=right;points=[];portConstraint=eastwest;" parent="YfqLZiuq-RBrFdygV_fY-14" vertex="1">
          <mxGeometry y="26" width="490" height="8" as="geometry"/>
        </mxCell>
        <mxCell id="YfqLZiuq-RBrFdygV_fY-17" value="+getTerminalInfo() : list&#xa;+ nubijaTerminalSelect(string, string, string, string, string, bool) : flask.wrappers.Response&#xa;" style="text;strokeColor=none;fillColor=none;align=left;verticalAlign=top;spacingLeft=4;spacingRight=4;overflow=hidden;rotatable=0;points=[[0,0.5],[1,0.5]];portConstraint=eastwest;" parent="YfqLZiuq-RBrFdygV_fY-14" vertex="1">
          <mxGeometry y="34" width="490" height="46" as="geometry"/>
        </mxCell>
        <mxCell id="dORa9sEvweq1nX9QKOWU-1" value="Search" style="swimlane;fontStyle=1;align=center;verticalAlign=top;childLayout=stackLayout;horizontal=1;startSize=26;horizontalStack=0;resizeParent=1;resizeParentMax=0;resizeLast=0;collapsible=1;marginBottom=0;" parent="1" vertex="1">
          <mxGeometry x="58" y="589" width="380" height="96" as="geometry">
            <mxRectangle x="635" y="673.5" width="70" height="26" as="alternateBounds"/>
          </mxGeometry>
        </mxCell>
        <mxCell id="dORa9sEvweq1nX9QKOWU-3" value="" style="line;strokeWidth=1;fillColor=none;align=left;verticalAlign=middle;spacingTop=-1;spacingLeft=3;spacingRight=3;rotatable=0;labelPosition=right;points=[];portConstraint=eastwest;" parent="dORa9sEvweq1nX9QKOWU-1" vertex="1">
          <mxGeometry y="26" width="380" height="8" as="geometry"/>
        </mxCell>
        <mxCell id="dORa9sEvweq1nX9QKOWU-4" value="+ navi_nubija(dict, dict) flask.wrappers.Response&#xa;+ search_text(string, string, string, string) : flask.wrappers.Response&#xa;" style="text;strokeColor=none;fillColor=none;align=left;verticalAlign=top;spacingLeft=4;spacingRight=4;overflow=hidden;rotatable=0;points=[[0,0.5],[1,0.5]];portConstraint=eastwest;" parent="dORa9sEvweq1nX9QKOWU-1" vertex="1">
          <mxGeometry y="34" width="380" height="62" as="geometry"/>
        </mxCell>
        <mxCell id="dORa9sEvweq1nX9QKOWU-6" value="RecentSearchPlace" style="swimlane;fontStyle=1;align=center;verticalAlign=top;childLayout=stackLayout;horizontal=1;startSize=26;horizontalStack=0;resizeParent=1;resizeParentMax=0;resizeLast=0;collapsible=1;marginBottom=0;" parent="1" vertex="1">
          <mxGeometry x="48" y="240" width="475" height="108" as="geometry"/>
        </mxCell>
        <mxCell id="dORa9sEvweq1nX9QKOWU-7" value="&#xa;" style="text;strokeColor=none;fillColor=none;align=left;verticalAlign=top;spacingLeft=4;spacingRight=4;overflow=hidden;rotatable=0;points=[[0,0.5],[1,0.5]];portConstraint=eastwest;" parent="dORa9sEvweq1nX9QKOWU-6" vertex="1">
          <mxGeometry y="26" width="475" height="34" as="geometry"/>
        </mxCell>
        <mxCell id="dORa9sEvweq1nX9QKOWU-8" value="" style="line;strokeWidth=1;fillColor=none;align=left;verticalAlign=middle;spacingTop=-1;spacingLeft=3;spacingRight=3;rotatable=0;labelPosition=right;points=[];portConstraint=eastwest;" parent="dORa9sEvweq1nX9QKOWU-6" vertex="1">
          <mxGeometry y="60" width="475" height="8" as="geometry"/>
        </mxCell>
        <mxCell id="dORa9sEvweq1nX9QKOWU-9" value="+ loadRecentPlaceList(string, string, string, dict, dict, bool) : flask.wrappers.Response" style="text;strokeColor=none;fillColor=none;align=left;verticalAlign=top;spacingLeft=4;spacingRight=4;overflow=hidden;rotatable=0;points=[[0,0.5],[1,0.5]];portConstraint=eastwest;" parent="dORa9sEvweq1nX9QKOWU-6" vertex="1">
          <mxGeometry y="68" width="475" height="40" as="geometry"/>
        </mxCell>
        <mxCell id="dORa9sEvweq1nX9QKOWU-14" value="Bookmark" style="swimlane;fontStyle=1;align=center;verticalAlign=top;childLayout=stackLayout;horizontal=1;startSize=26;horizontalStack=0;resizeParent=1;resizeParentMax=0;resizeLast=0;collapsible=1;marginBottom=0;" parent="1" vertex="1">
          <mxGeometry x="40.5" y="470" width="510" height="108" as="geometry"/>
        </mxCell>
        <mxCell id="dORa9sEvweq1nX9QKOWU-15" value="&#xa;" style="text;strokeColor=none;fillColor=none;align=left;verticalAlign=top;spacingLeft=4;spacingRight=4;overflow=hidden;rotatable=0;points=[[0,0.5],[1,0.5]];portConstraint=eastwest;" parent="dORa9sEvweq1nX9QKOWU-14" vertex="1">
          <mxGeometry y="26" width="510" height="34" as="geometry"/>
        </mxCell>
        <mxCell id="dORa9sEvweq1nX9QKOWU-16" value="" style="line;strokeWidth=1;fillColor=none;align=left;verticalAlign=middle;spacingTop=-1;spacingLeft=3;spacingRight=3;rotatable=0;labelPosition=right;points=[];portConstraint=eastwest;" parent="dORa9sEvweq1nX9QKOWU-14" vertex="1">
          <mxGeometry y="60" width="510" height="8" as="geometry"/>
        </mxCell>
        <mxCell id="dORa9sEvweq1nX9QKOWU-17" value="+ manageBookmark(string, string, string, string, string, string, dict) : flask.wrappers.Response&#xa;+ loadBookmarkPlaceList(string, string, string, dict): flask.wrappers.Response" style="text;strokeColor=none;fillColor=none;align=left;verticalAlign=top;spacingLeft=4;spacingRight=4;overflow=hidden;rotatable=0;points=[[0,0.5],[1,0.5]];portConstraint=eastwest;" parent="dORa9sEvweq1nX9QKOWU-14" vertex="1">
          <mxGeometry y="68" width="510" height="40" as="geometry"/>
        </mxCell>
        <mxCell id="fbuVB1Uy8dnFAATzkN-F-3" value="main" style="swimlane;fontStyle=1;align=center;verticalAlign=top;childLayout=stackLayout;horizontal=1;startSize=26;horizontalStack=0;resizeParent=1;resizeParentMax=0;resizeLast=0;collapsible=1;marginBottom=0;" vertex="1" parent="1">
          <mxGeometry x="178" y="700" width="280" height="340" as="geometry"/>
        </mxCell>
        <mxCell id="fbuVB1Uy8dnFAATzkN-F-4" value="+ weatherClass : Weather&#xa;+ nubijaClass : Nubija&#xa;+ bookmarkClass : Bookmark&#xa;+ recentClass : recent&#xa;+ defaultCookie : dict&#xa;+ defaultRoute : dict&#xa;+ contextSSL : tuple&#xa;" style="text;strokeColor=none;fillColor=none;align=left;verticalAlign=top;spacingLeft=4;spacingRight=4;overflow=hidden;rotatable=0;points=[[0,0.5],[1,0.5]];portConstraint=eastwest;" vertex="1" parent="fbuVB1Uy8dnFAATzkN-F-3">
          <mxGeometry y="26" width="280" height="124" as="geometry"/>
        </mxCell>
        <mxCell id="fbuVB1Uy8dnFAATzkN-F-5" value="" style="line;strokeWidth=1;fillColor=none;align=left;verticalAlign=middle;spacingTop=-1;spacingLeft=3;spacingRight=3;rotatable=0;labelPosition=right;points=[];portConstraint=eastwest;" vertex="1" parent="fbuVB1Uy8dnFAATzkN-F-3">
          <mxGeometry y="150" width="280" height="8" as="geometry"/>
        </mxCell>
        <mxCell id="fbuVB1Uy8dnFAATzkN-F-6" value="+ timeCheck() : int&#xa;+ checkServiceTime() : bool&#xa;+ main_Page() : flask.wrappers.Response&#xa;+ result_Page() : flask.wrappers.Response&#xa;+ jse () : json&#xa;+ Weather_page() : flask.wrappers.Response&#xa;+ recent_search() : flask.wrappers.Response&#xa;+ recent_bookmark() : flask.wrappers.Response&#xa;+ manageBook() : flask.wrappers.Response&#xa;+ nubijaSelect() : flask.wrappers.Response&#xa;+ searchtext() : flask.wrappers.Response&#xa;+ navinubija() : flask.wrappers.Response&#xa;" style="text;strokeColor=none;fillColor=none;align=left;verticalAlign=top;spacingLeft=4;spacingRight=4;overflow=hidden;rotatable=0;points=[[0,0.5],[1,0.5]];portConstraint=eastwest;" vertex="1" parent="fbuVB1Uy8dnFAATzkN-F-3">
          <mxGeometry y="158" width="280" height="182" as="geometry"/>
        </mxCell>
        <mxCell id="fbuVB1Uy8dnFAATzkN-F-7" value="" style="endArrow=diamondThin;endFill=1;endSize=24;html=1;exitX=-0.012;exitY=0.886;exitDx=0;exitDy=0;exitPerimeter=0;entryX=1;entryY=-0.011;entryDx=0;entryDy=0;entryPerimeter=0;" edge="1" parent="1" source="YfqLZiuq-RBrFdygV_fY-2" target="fbuVB1Uy8dnFAATzkN-F-6">
          <mxGeometry width="160" relative="1" as="geometry">
            <mxPoint x="538" y="970" as="sourcePoint"/>
            <mxPoint x="488" y="857" as="targetPoint"/>
          </mxGeometry>
        </mxCell>
        <mxCell id="YfqLZiuq-RBrFdygV_fY-1" value="Weather" style="swimlane;fontStyle=1;align=center;verticalAlign=top;childLayout=stackLayout;horizontal=1;startSize=26;horizontalStack=0;resizeParent=1;resizeParentMax=0;resizeLast=0;collapsible=1;marginBottom=0;" parent="1" vertex="1">
          <mxGeometry x="628" y="790" width="170" height="110" as="geometry"/>
        </mxCell>
        <mxCell id="YfqLZiuq-RBrFdygV_fY-2" value="+ weather: string&#xa;+ temp: float&#xa;&#xa;&#xa;" style="text;strokeColor=none;fillColor=none;align=left;verticalAlign=top;spacingLeft=4;spacingRight=4;overflow=hidden;rotatable=0;points=[[0,0.5],[1,0.5]];portConstraint=eastwest;" parent="YfqLZiuq-RBrFdygV_fY-1" vertex="1">
          <mxGeometry y="26" width="170" height="44" as="geometry"/>
        </mxCell>
        <mxCell id="YfqLZiuq-RBrFdygV_fY-3" value="" style="line;strokeWidth=1;fillColor=none;align=left;verticalAlign=middle;spacingTop=-1;spacingLeft=3;spacingRight=3;rotatable=0;labelPosition=right;points=[];portConstraint=eastwest;" parent="YfqLZiuq-RBrFdygV_fY-1" vertex="1">
          <mxGeometry y="70" width="170" height="8" as="geometry"/>
        </mxCell>
        <mxCell id="YfqLZiuq-RBrFdygV_fY-4" value="+ weatherInfo() : dict&#xa;&#xa;" style="text;strokeColor=none;fillColor=none;align=left;verticalAlign=top;spacingLeft=4;spacingRight=4;overflow=hidden;rotatable=0;points=[[0,0.5],[1,0.5]];portConstraint=eastwest;" parent="YfqLZiuq-RBrFdygV_fY-1" vertex="1">
          <mxGeometry y="78" width="170" height="32" as="geometry"/>
        </mxCell>
        <mxCell id="fbuVB1Uy8dnFAATzkN-F-9" value="" style="endArrow=diamondThin;endFill=1;endSize=24;html=1;entryX=1.005;entryY=0.352;entryDx=0;entryDy=0;entryPerimeter=0;exitX=1.003;exitY=0.875;exitDx=0;exitDy=0;exitPerimeter=0;" edge="1" parent="1" source="dORa9sEvweq1nX9QKOWU-9" target="fbuVB1Uy8dnFAATzkN-F-4">
          <mxGeometry width="160" relative="1" as="geometry">
            <mxPoint x="618" y="320" as="sourcePoint"/>
            <mxPoint x="148" y="1010" as="targetPoint"/>
            <Array as="points">
              <mxPoint x="618" y="343"/>
              <mxPoint x="618" y="770"/>
            </Array>
          </mxGeometry>
        </mxCell>
        <mxCell id="fbuVB1Uy8dnFAATzkN-F-10" value="" style="endArrow=diamondThin;endFill=1;endSize=24;html=1;entryX=1.005;entryY=0.097;entryDx=0;entryDy=0;entryPerimeter=0;exitX=1;exitY=0.5;exitDx=0;exitDy=0;" edge="1" parent="1" source="YfqLZiuq-RBrFdygV_fY-17" target="fbuVB1Uy8dnFAATzkN-F-4">
          <mxGeometry width="160" relative="1" as="geometry">
            <mxPoint x="548" y="420" as="sourcePoint"/>
            <mxPoint x="178" y="1110" as="targetPoint"/>
            <Array as="points">
              <mxPoint x="588" y="427"/>
              <mxPoint x="588" y="738"/>
            </Array>
          </mxGeometry>
        </mxCell>
        <mxCell id="fbuVB1Uy8dnFAATzkN-F-11" value="" style="endArrow=diamondThin;endFill=1;endSize=24;html=1;entryX=-0.004;entryY=0.005;entryDx=0;entryDy=0;entryPerimeter=0;" edge="1" parent="1" source="dORa9sEvweq1nX9QKOWU-17" target="fbuVB1Uy8dnFAATzkN-F-6">
          <mxGeometry width="160" relative="1" as="geometry">
            <mxPoint x="28" y="540" as="sourcePoint"/>
            <mxPoint x="158" y="1160" as="targetPoint"/>
            <Array as="points">
              <mxPoint x="28" y="570"/>
              <mxPoint x="28" y="859"/>
            </Array>
          </mxGeometry>
        </mxCell>
        <mxCell id="fbuVB1Uy8dnFAATzkN-F-12" value="" style="endArrow=diamondThin;endFill=1;endSize=24;html=1;entryX=0;entryY=0.395;entryDx=0;entryDy=0;entryPerimeter=0;exitX=0;exitY=0.5;exitDx=0;exitDy=0;" edge="1" parent="1" source="dORa9sEvweq1nX9QKOWU-4" target="fbuVB1Uy8dnFAATzkN-F-4">
          <mxGeometry width="160" relative="1" as="geometry">
            <mxPoint x="48" y="640" as="sourcePoint"/>
            <mxPoint x="138" y="1210" as="targetPoint"/>
            <Array as="points">
              <mxPoint x="48" y="660"/>
              <mxPoint x="48" y="775"/>
            </Array>
          </mxGeometry>
        </mxCell>
      </root>
    </mxGraphModel>
  </diagram>
</mxfile>
